<?xml version="1.0" standalone="no"?>
<!DOCTYPE svg PUBLIC "-//W3C//DTD SVG 20010904//EN"
 "http://www.w3.org/TR/2001/REC-SVG-20010904/DTD/svg10.dtd">
<svg version="1.0" xmlns="http://www.w3.org/2000/svg"
 width="500.000000pt" height="500.000000pt" viewBox="0 0 500.000000 500.000000"
 preserveAspectRatio="xMidYMid meet">
<metadata>
Created by potrace 1.14, written by Peter Selinger 2001-2017
</metadata>
<g transform="translate(0.000000,500.000000) scale(0.100000,-0.100000)"
fill="#000000" stroke="none">
<path d="M1196 3022 c-2 -4 -24 -9 -48 -10 -81 -5 -173 -67 -185 -123 -5 -27
-9 -30 -41 -27 -28 3 -36 8 -39 28 -5 38 -30 50 -100 50 -51 0 -66 -4 -80 -21
-10 -11 -55 -57 -101 -102 -82 -82 -82 -82 -91 -149 -5 -37 -8 -143 -6 -235 7
-262 15 -294 79 -316 28 -10 49 -11 66 -5 19 7 27 6 35 -7 69 -116 176 -172
321 -170 69 1 81 4 187 58 113 58 113 58 149 43 50 -21 193 -45 231 -39 17 3
63 22 102 42 70 38 97 70 111 133 9 39 11 436 3 489 -4 28 -16 67 -26 87 -20
41 -42 49 -188 72 -85 13 -98 21 -85 54 12 33 3 79 -19 98 -12 9 -46 24 -77
34 -49 15 -59 16 -87 2 -38 -17 -68 -13 -60 8 4 10 -2 14 -20 14 -14 0 -28 -4
-31 -8z m9 -18 c-25 -20 -75 -46 -75 -40 0 5 82 56 90 56 3 -1 -4 -8 -15 -16z
m105 -24 c-14 -10 -33 -21 -43 -24 -22 -6 -17 1 20 25 38 24 54 23 23 -1z
m-75 4 c24 -9 -1 -24 -40 -24 -29 1 -29 1 -11 15 22 17 27 18 51 9z m-131 -28
c-8 -33 17 -45 101 -50 60 -3 70 0 118 30 57 37 106 43 131 18 17 -17 19 -30
10 -86 -4 -22 -13 -40 -23 -43 -9 -2 -40 -27 -68 -54 l-53 -50 16 -37 c8 -20
17 -69 19 -108 l4 -71 -9 67 c-8 68 -27 105 -78 157 -18 18 -22 30 -17 50 9
37 20 45 43 32 24 -13 42 -7 102 32 57 38 54 36 47 43 -3 3 -25 -7 -49 -23
-57 -39 -76 -45 -99 -32 -25 13 -15 27 49 71 24 16 41 32 38 35 -6 7 -89 -43
-110 -66 -15 -16 -21 -17 -54 -6 -40 14 -122 24 -190 25 l-43 0 23 23 c33 32
79 67 90 67 4 0 6 -11 2 -24z m206 -6 c-25 -13 -53 -19 -95 -18 l-60 1 65 6
c36 3 74 12 85 18 11 7 25 12 30 12 6 0 -6 -8 -25 -19z m-165 -10 c3 -6 -1 -7
-9 -4 -18 7 -21 14 -7 14 6 0 13 -4 16 -10z m-295 -29 c13 -1 13 -2 0 -11 -19
-12 -107 -13 -114 -1 -11 17 10 19 114 12z m329 -51 c60 -11 75 -24 60 -52 -5
-10 -7 -18 -4 -18 3 0 1 -8 -4 -19 -6 -11 -19 -17 -33 -16 -23 3 -70 8 -170
21 -50 6 -57 15 -50 66 2 15 11 28 21 30 24 5 119 -1 180 -12z m-333 -5 c-11
-8 -29 -15 -40 -16 -12 0 -28 -2 -36 -3 -21 -5 -60 11 -60 24 0 6 31 10 78 10
70 -1 75 -2 58 -15z m-52 -43 c30 3 53 1 50 -3 -8 -13 35 -31 57 -24 27 9 19
29 -14 33 -41 5 -22 22 24 22 36 0 39 -2 39 -28 0 -25 -6 -30 -40 -41 -21 -6
-59 -27 -83 -45 -41 -31 -43 -32 -39 -11 2 15 -4 29 -23 44 -30 23 -60 26 -99
11 -16 -6 -27 -6 -31 1 -7 11 -25 3 -25 -12 0 -5 8 -9 18 -9 10 0 13 -3 6 -8
-19 -12 -27 -52 -14 -67 7 -8 23 -15 36 -15 13 0 24 -4 24 -10 0 -5 -22 -10
-50 -10 -37 0 -55 5 -70 20 -27 27 -17 45 63 127 l60 61 28 -20 c22 -17 38
-20 83 -16z m788 -18 c78 -8 128 -23 128 -38 0 -8 -19 -21 -42 -31 -40 -16
-120 -16 -203 0 -11 2 -38 4 -60 5 l-40 1 45 40 c40 37 48 40 82 35 21 -3 61
-9 90 -12z m-859 -51 c-3 -7 -8 -13 -12 -13 -3 0 -16 -3 -28 -6 -30 -8 -31 14
-1 25 31 11 47 9 41 -6z m223 0 c-2 -10 -7 -41 -11 -69 -7 -54 -15 -61 -119
-113 -52 -26 -123 -106 -139 -158 -23 -71 -29 -143 -17 -198 12 -54 5 -65 -41
-65 -32 0 -58 19 -64 48 -3 12 -7 31 -9 42 -3 11 -8 106 -11 211 l-7 192 24
-7 c96 -29 161 -11 274 74 79 60 130 78 120 43z m164 1 c41 -4 83 -8 92 -9 10
-1 35 -16 57 -33 30 -24 44 -46 57 -87 10 -30 15 -58 11 -61 -3 -4 -23 8 -44
26 -81 72 -213 103 -296 71 -39 -15 -39 -15 -33 17 3 15 7 41 8 58 2 30 4 31
38 28 19 -1 69 -6 110 -10z m-340 -18 c0 -16 -25 -39 -49 -44 -22 -5 -72 -3
-82 4 -22 13 -6 22 31 17 33 -5 43 -2 62 20 23 26 38 27 38 3z m988 -93 c9
-63 7 -313 -2 -428 -6 -79 -18 -98 -77 -125 -30 -14 -57 -29 -60 -33 -13 -18
-97 -19 -179 -2 -47 9 -88 19 -92 21 -4 3 4 21 18 41 37 56 53 123 48 204 -2
39 -11 86 -19 105 -8 19 -17 76 -20 128 -3 51 -10 108 -15 127 -14 48 -13 50
15 39 35 -13 137 -25 221 -25 61 0 75 4 105 26 41 32 43 29 57 -78z m-584 -19
c66 -31 143 -103 173 -162 28 -54 46 -162 38 -224 -4 -26 -18 -65 -33 -87 -29
-46 -38 -48 -21 -5 7 16 12 74 13 129 0 90 -3 106 -28 155 -34 68 -32 67 -54
47 -17 -16 -20 -15 -46 12 -16 16 -25 34 -22 40 10 15 29 14 23 -1 -6 -18 22
-48 39 -41 21 8 17 17 -18 53 -40 39 -110 76 -181 95 l-52 14 57 0 c42 1 72
-6 112 -25z m-65 -24 c93 -36 96 -38 75 -61 -17 -19 -16 -21 17 -55 26 -27 39
-33 59 -29 21 4 28 0 43 -32 20 -45 35 -119 31 -159 -13 -129 -25 -163 -65
-184 -28 -15 -29 -13 -12 28 17 39 24 185 11 235 -29 119 -135 213 -281 251
-48 13 -49 17 -7 29 26 7 74 -1 129 -23z m-32 -52 c97 -56 137 -101 168 -193
33 -97 12 -256 -41 -306 -30 -28 -30 -25 3 47 34 77 36 193 4 267 -44 102
-182 198 -288 201 -52 1 -60 11 -13 18 43 6 126 -11 167 -34z m-52 -52 c62
-28 139 -101 160 -153 9 -21 18 -72 20 -113 4 -64 1 -84 -19 -126 -44 -94 -85
-125 -170 -127 -155 -3 -253 50 -305 168 -21 47 -30 144 -19 200 17 82 43 121
101 155 48 29 57 31 117 25 36 -3 88 -16 115 -29z"/>
<path d="M864 2687 c-28 -16 -125 -99 -120 -104 9 -10 62 22 103 62 47 47 54
62 17 42z"/>
<path d="M662 2527 c-13 -36 -17 -115 -5 -103 9 8 32 94 33 119 0 28 -15 19
-28 -16z"/>
<path d="M1587 2373 c1 -157 4 -288 7 -291 4 -3 6 3 7 14 0 10 3 28 5 39 3 11
7 99 9 195 2 161 -8 305 -24 322 -3 4 -5 -122 -4 -279z"/>
<path d="M1464 2305 c-12 -18 -13 -28 -4 -44 15 -28 66 -29 75 -1 7 21 -2 59
-13 61 -4 0 -15 2 -25 4 -10 2 -24 -7 -33 -20z m56 -26 c0 -20 -24 -26 -35 -9
-4 6 -4 17 -1 25 7 20 36 7 36 -16z"/>
<path d="M850 2433 c-81 -56 -109 -153 -76 -264 13 -45 23 -61 59 -87 106 -75
232 -57 284 41 23 44 21 152 -4 204 -35 70 -48 83 -101 103 -65 25 -129 26
-162 3z m42 -132 c-9 -16 -18 -28 -21 -26 -4 5 27 55 34 55 2 0 -4 -13 -13
-29z m78 -26 c-7 -9 -15 -13 -19 -10 -3 3 1 10 9 15 21 14 24 12 10 -5z m57
-17 c-3 -8 -6 -5 -6 6 -1 11 2 17 5 13 3 -3 4 -12 1 -19z m30 -20 c-3 -7 -5
-2 -5 12 0 14 2 19 5 13 2 -7 2 -19 0 -25z m-182 -18 c2 -17 9 -39 16 -48 8
-10 4 -7 -8 6 -14 14 -23 36 -23 54 0 39 12 29 15 -12z m58 10 c3 -11 3 -20 1
-20 -2 0 -8 9 -14 20 -6 11 -7 20 -2 20 6 0 12 -9 15 -20z m119 -42 c-8 -8 -9
-4 -5 13 4 13 8 18 11 10 2 -7 -1 -18 -6 -23z m-37 -38 c-3 -5 -12 -10 -18
-10 -7 0 -6 4 3 10 19 12 23 12 15 0z m-42 -17 c-7 -2 -19 -2 -25 0 -7 3 -2 5
12 5 14 0 19 -2 13 -5z"/>
<path d="M1870 3010 c0 -13 7 -20 20 -20 13 0 20 7 20 20 0 13 -7 20 -20 20
-13 0 -20 -7 -20 -20z"/>
<path d="M1870 2930 c0 -13 7 -20 20 -20 13 0 20 7 20 20 0 13 -7 20 -20 20
-13 0 -20 -7 -20 -20z"/>
<path d="M2024 2906 c-18 -14 -19 -29 -20 -256 -2 -225 0 -244 17 -261 17 -17
36 -19 198 -19 204 0 221 6 242 82 13 52 6 150 -13 180 -13 20 -14 26 -1 45
16 24 21 107 9 166 -5 28 -16 43 -39 57 -28 18 -51 20 -203 20 -131 0 -175 -3
-190 -14z m334 -98 c16 -16 15 -83 -2 -100 -9 -10 -37 -13 -90 -12 -84 2 -95
-5 -91 -59 3 -38 11 -42 92 -41 88 2 103 -6 103 -56 0 -71 2 -70 -141 -70
l-128 0 0 175 -1 175 123 0 c82 0 127 -4 135 -12z"/>
<path d="M2627 2902 c-15 -16 -17 -49 -17 -259 0 -220 2 -241 18 -256 16 -14
44 -17 190 -17 94 0 182 4 197 10 16 6 32 24 41 46 20 49 20 168 0 199 -14 21
-14 28 -1 59 17 41 19 115 5 167 -17 60 -48 69 -247 69 -152 0 -172 -2 -186
-18z m339 -94 c10 -16 6 -90 -6 -102 -6 -6 -45 -11 -88 -12 -42 -1 -80 -2 -84
-3 -12 -2 -9 -79 3 -87 6 -3 46 -7 89 -8 43 -1 82 -5 86 -9 9 -9 9 -91 -1
-106 -7 -13 -255 -16 -256 -3 0 4 -1 82 -2 175 l-2 167 127 0 c85 0 129 -4
134 -12z"/>
<path d="M3274 2910 c-41 -16 -58 -59 -59 -145 0 -89 15 -137 48 -154 12 -6
78 -12 147 -13 l125 -3 0 -60 0 -60 -157 -3 c-87 -1 -158 -6 -159 -10 -5 -35
-5 -69 -2 -79 4 -10 49 -13 179 -13 l174 0 31 28 c30 27 32 34 37 109 5 88 -7
140 -39 169 -17 15 -41 19 -147 22 -82 2 -130 8 -135 15 -6 9 -4 78 2 105 1 1
68 2 150 2 158 0 161 1 156 50 -1 14 -3 31 -4 38 -1 9 -40 12 -163 11 -90 0
-172 -4 -184 -9z"/>
<path d="M1870 2850 c0 -13 7 -20 20 -20 13 0 20 7 20 20 0 13 -7 20 -20 20
-13 0 -20 -7 -20 -20z"/>
<path d="M1870 2770 c0 -13 7 -20 20 -20 13 0 20 7 20 20 0 13 -7 20 -20 20
-13 0 -20 -7 -20 -20z"/>
<path d="M1870 2690 c0 -13 7 -20 20 -20 13 0 20 7 20 20 0 13 -7 20 -20 20
-13 0 -20 -7 -20 -20z"/>
<path d="M1870 2610 c0 -13 7 -20 20 -20 13 0 20 7 20 20 0 13 -7 20 -20 20
-13 0 -20 -7 -20 -20z"/>
<path d="M1870 2530 c0 -13 7 -20 20 -20 13 0 20 7 20 20 0 13 -7 20 -20 20
-13 0 -20 -7 -20 -20z"/>
<path d="M1870 2450 c0 -13 7 -20 20 -20 13 0 20 7 20 20 0 13 -7 20 -20 20
-13 0 -20 -7 -20 -20z"/>
<path d="M1870 2370 c0 -13 7 -20 20 -20 13 0 20 7 20 20 0 13 -7 20 -20 20
-13 0 -20 -7 -20 -20z"/>
<path d="M1870 2290 c0 -13 7 -20 20 -20 13 0 20 7 20 20 0 13 -7 20 -20 20
-13 0 -20 -7 -20 -20z"/>
<path d="M1970 2260 c0 -17 8 -19 73 -22 66 -3 72 -5 75 -25 4 -25 9 -23 -98
-27 l-45 -1 -3 -67 c-3 -62 -1 -68 16 -68 24 0 31 15 26 58 -2 17 0 32 4 33 4
1 30 2 59 4 65 3 83 17 83 66 0 58 -18 69 -111 69 -72 0 -79 -2 -79 -20z"/>
<path d="M2221 2165 c-2 -115 -1 -116 21 -113 19 3 22 9 22 48 l1 45 50 0 50
0 3 -48 c3 -39 6 -47 23 -47 18 0 19 8 19 115 0 108 -1 115 -20 115 -17 0 -20
-7 -20 -44 0 -42 -1 -44 -32 -47 -66 -8 -75 -2 -74 44 1 36 -2 42 -20 45 -21
3 -22 0 -23 -113z"/>
<path d="M2490 2260 c-16 -16 -20 -33 -20 -95 0 -99 14 -115 103 -115 34 0 67
4 74 8 25 16 34 78 24 179 -3 29 -33 43 -97 43 -51 0 -68 -4 -84 -20z m135
-30 c9 -15 10 -114 1 -128 -9 -16 -88 -16 -104 0 -7 7 -12 35 -12 63 0 28 5
56 12 63 15 15 94 16 103 2z"/>
<path d="M2735 2270 c-11 -18 5 -30 43 -30 l37 0 0 -95 c-1 -90 0 -95 20 -95
20 0 22 5 20 83 0 45 1 88 3 95 2 7 21 12 42 12 31 0 38 3 36 18 -3 15 -16 17
-99 20 -58 2 -98 -1 -102 -8z"/>
<path d="M3015 2264 c-17 -13 -20 -27 -20 -100 0 -104 9 -114 100 -114 92 0
100 10 100 115 0 74 -3 89 -19 101 -27 19 -135 18 -161 -2z m132 -36 c8 -11
10 -71 4 -125 -1 -9 -18 -13 -50 -13 -27 0 -53 6 -58 13 -12 14 -11 107 0 125
5 6 28 12 51 12 24 0 48 -6 53 -12z"/>
<path d="M3276 2261 c-14 -15 -18 -37 -18 -96 0 -104 11 -115 109 -115 84 0
84 1 87 82 l1 53 -57 3 c-53 3 -58 1 -58 -18 0 -14 7 -20 25 -21 53 -3 52 -1
46 -50 0 -6 -22 -9 -53 -7 l-53 3 0 70 0 70 75 5 c58 4 75 8 75 20 0 12 -17
16 -81 18 -69 2 -83 0 -98 -17z"/>
<path d="M3519 2275 c-7 -26 0 -30 66 -35 63 -5 70 -7 73 -27 4 -25 3 -25 -79
-24 -65 1 -66 0 -65 -79 1 -48 4 -55 21 -55 16 0 20 7 22 39 0 21 5 42 10 47
17 17 54 -6 76 -46 14 -25 31 -41 45 -43 27 -4 27 1 1 48 -21 38 -21 38 -2 59
25 27 23 89 -3 108 -17 12 -162 20 -165 8z"/>
<path d="M3856 2272 c-6 -10 -86 -211 -86 -217 0 -15 40 -1 53 18 11 18 24 23
46 22 17 -1 31 2 31 6 0 21 -14 39 -31 39 -23 0 -23 6 1 50 17 31 20 33 25 15
4 -11 19 -49 34 -85 20 -48 33 -66 49 -68 29 -4 29 -7 -14 93 -7 17 -20 50
-30 75 -10 25 -22 48 -28 52 -14 10 -44 10 -50 0z"/>
<path d="M4057 2266 c-9 -22 2 -26 74 -26 47 0 68 -4 72 -13 11 -28 -10 -39
-72 -39 -34 0 -64 -5 -67 -10 -3 -5 -6 -35 -7 -66 0 -51 2 -57 21 -60 18 -3
21 2 24 44 l3 48 58 2 c33 1 64 7 70 13 16 16 14 85 -2 105 -18 22 -166 24
-174 2z"/>
<path d="M4309 2270 c0 -5 -1 -26 -1 -45 0 -168 1 -175 22 -175 17 0 20 7 20
48 l0 49 53 -1 52 -1 0 -44 c0 -29 5 -46 14 -49 23 -8 27 14 27 121 -1 95 -2
102 -22 105 -18 3 -20 -2 -19 -42 3 -50 -6 -55 -72 -47 -32 3 -33 5 -33 47 0
37 -3 44 -20 44 -11 0 -20 -4 -21 -10z"/>
<path d="M4560 2271 c0 -5 18 -40 40 -79 27 -46 40 -81 40 -106 0 -29 4 -36
20 -36 16 0 20 7 20 33 0 33 8 51 61 145 l30 52 -23 0 c-18 0 -30 -12 -53 -54
-16 -30 -33 -52 -37 -50 -5 3 -20 28 -33 55 -18 34 -31 49 -45 49 -11 0 -20
-4 -20 -9z"/>
<path d="M1870 2210 c0 -13 7 -20 20 -20 13 0 20 7 20 20 0 13 -7 20 -20 20
-13 0 -20 -7 -20 -20z"/>
<path d="M1870 2130 c0 -13 7 -20 20 -20 13 0 20 7 20 20 0 13 -7 20 -20 20
-13 0 -20 -7 -20 -20z"/>
<path d="M1870 2050 c0 -13 7 -20 20 -20 13 0 20 7 20 20 0 13 -7 20 -20 20
-13 0 -20 -7 -20 -20z"/>
<path d="M1870 1970 c0 -13 7 -20 20 -20 13 0 20 7 20 20 0 13 -7 20 -20 20
-13 0 -20 -7 -20 -20z"/>
</g>
</svg>
